<?xml version="1.0" encoding="utf-8"?>
<!-- Generator: Adobe Illustrator 27.2.0, SVG Export Plug-In . SVG Version: 6.00 Build 0)  -->
<svg version="1.1" id="Layer_1" xmlns="http://www.w3.org/2000/svg" xmlns:xlink="http://www.w3.org/1999/xlink" x="0px" y="0px"
	 viewBox="0 0 395.2 107.2" style="enable-background:new 0 0 395.2 107.2;" xml:space="preserve">
<style type="text/css">
	.st0{fill:#F1C300;}
	.st1{fill:#F62559;}
	.st2{fill:#3CB47A;}
	.st3{enable-background:new    ;}
	.st4{fill:none;stroke:#231F20;stroke-width:0.5;stroke-miterlimit:10;}
</style>
<g>
	<path class="st0" d="M67.7,68.2c-3.8,2.8-7.8,4.9-12.7,4.5c-3.1-0.2-5.8-1.5-8-3.6c-2.5-2.3-4.9-4.8-7.3-7.2
		c-3.5-3.5-7-7-10.5-10.5c-1-1-2.1-2-2.8-3.4c-2.6-5.2,1.4-11.3,7.2-11.1c2,0.1,3.7,0.8,5.1,2.2C44,44.4,49.2,49.7,54.5,55
		c4.3,4.3,8.6,8.6,12.9,12.9C67.5,68,67.6,68.1,67.7,68.2L67.7,68.2z"/>
	<path class="st1" d="M36.5,67c-1.6,1.4-3.3,2.5-5.2,3.2c-3.9,1.5-7.8,1.5-11.6,0c-1-0.4-2-1.1-2.8-1.8c-1.1-0.9-2.1-2-2.9-3.1
		c-2.2-3-1.6-7.3,1.3-9.8s7.1-2.5,9.8,0.1c2.9,2.7,5.6,5.6,8.5,8.4C34.5,65,35.5,66,36.5,67z"/>
	<path class="st2" d="M73.4,64.2c-4.2-4.2-8.4-8.3-12.5-12.5c2.4-2.9,5.5-4.5,9.3-3.6c3.6,0.8,5.9,3,6.8,6.6
		C77.8,57.9,77,61.2,73.4,64.2z"/>
	<path class="st1" d="M58,48.8c-3.7-3.7-7.3-7.3-10.8-10.8c1.7-2.1,3.7-3.6,6.5-3.8c3.5-0.2,6.9,2.3,7.7,5.8c0.7,2.9,0,5.4-2.1,7.5
		C58.8,47.9,58.4,48.3,58,48.8z"/>
</g>
<g class="st3">
	<path d="M92.1,49.7h-3.4v-5.9h3.4v-7h7.2v7h6.4v5.9h-6.4v13.7c0,1.9,0.8,2.7,3,2.7h3.3v6.1h-4.5c-5.4,0-9.1-2.3-9.1-8.8V49.7z"/>
	<path d="M137.7,72.2h-7.2v-3.6c-1.8,2.4-4.9,3.9-8.5,3.9c-6.6,0-11.4-4.3-11.4-12.1V43.8h7.2v15.6c0,4.6,2.5,7,6.3,7
		c3.9,0,6.4-2.5,6.4-7V43.8h7.2V72.2z"/>
	<path d="M157.2,72.6c-8.3,0-14.3-5.7-14.3-14.7c0-9,5.8-14.7,14.3-14.7c8.2,0,14,5.6,14,14.1c0,0.9-0.1,1.8-0.2,2.8h-20.8
		c0.4,4.2,3.2,6.6,6.8,6.6c3.1,0,4.8-1.5,5.7-3.4h7.7C168.9,68.5,164.2,72.6,157.2,72.6z M150.2,55.3h13.5c-0.1-3.7-3.1-6.1-6.8-6.1
		C153.5,49.2,150.8,51.4,150.2,55.3z"/>
	<path d="M187.3,72.6c-7.1,0-12.1-4.2-12.4-9.4h7.2c0.3,2.2,2.3,3.8,5.1,3.8c2.8,0,4.4-1.3,4.4-2.9c0-5.1-16.1-1.8-16.1-12.3
		c0-4.7,4.2-8.5,11.2-8.5c6.9,0,11,3.7,11.4,9.4h-6.9c-0.2-2.2-1.9-3.7-4.8-3.7c-2.7,0-4.1,1.1-4.1,2.7c0,5.2,15.7,1.9,15.9,12.4
		C198.5,68.9,194.2,72.6,187.3,72.6z"/>
	<path d="M215.5,43.3c3.7,0,7.3,1.7,9.3,4.4V34.2h7.3v38h-7.3V68c-1.7,2.6-4.9,4.7-9.3,4.7c-7.2,0-13-5.9-13-14.8
		C202.5,49,208.3,43.3,215.5,43.3z M217.3,49.6c-3.8,0-7.5,2.9-7.5,8.3c0,5.4,3.6,8.5,7.5,8.5c3.9,0,7.5-3,7.5-8.4
		C224.9,52.6,221.3,49.6,217.3,49.6z"/>
	<path d="M250.3,43.3c4.6,0,7.7,2.2,9.4,4.5v-4.1h7.2v28.4h-7.2V68c-1.7,2.5-4.9,4.6-9.4,4.6c-7.2,0-12.9-5.9-12.9-14.8
		C237.3,49,243,43.3,250.3,43.3z M252.1,49.6c-3.8,0-7.5,2.9-7.5,8.3c0,5.4,3.6,8.5,7.5,8.5c3.9,0,7.5-3,7.5-8.4
		C259.6,52.6,256.1,49.6,252.1,49.6z"/>
	<path d="M293.4,43.8h7.6l-17.6,41.8h-7.6l6.2-14.2l-11.4-27.7h8.1l7.3,19.8L293.4,43.8z"/>
</g>
<g class="st3">
	<path class="st4" d="M92.1,49.7h-3.4v-5.9h3.4v-7h7.2v7h6.4v5.9h-6.4v13.7c0,1.9,0.8,2.7,3,2.7h3.3v6.1h-4.5
		c-5.4,0-9.1-2.3-9.1-8.8V49.7z"/>
	<path class="st4" d="M137.7,72.2h-7.2v-3.6c-1.8,2.4-4.9,3.9-8.5,3.9c-6.6,0-11.4-4.3-11.4-12.1V43.8h7.2v15.6c0,4.6,2.5,7,6.3,7
		c3.9,0,6.4-2.5,6.4-7V43.8h7.2V72.2z"/>
	<path class="st4" d="M157.2,72.6c-8.3,0-14.3-5.7-14.3-14.7c0-9,5.8-14.7,14.3-14.7c8.2,0,14,5.6,14,14.1c0,0.9-0.1,1.8-0.2,2.8
		h-20.8c0.4,4.2,3.2,6.6,6.8,6.6c3.1,0,4.8-1.5,5.7-3.4h7.7C168.9,68.5,164.2,72.6,157.2,72.6z M150.2,55.3h13.5
		c-0.1-3.7-3.1-6.1-6.8-6.1C153.5,49.2,150.8,51.4,150.2,55.3z"/>
	<path class="st4" d="M187.3,72.6c-7.1,0-12.1-4.2-12.4-9.4h7.2c0.3,2.2,2.3,3.8,5.1,3.8c2.8,0,4.4-1.3,4.4-2.9
		c0-5.1-16.1-1.8-16.1-12.3c0-4.7,4.2-8.5,11.2-8.5c6.9,0,11,3.7,11.4,9.4h-6.9c-0.2-2.2-1.9-3.7-4.8-3.7c-2.7,0-4.1,1.1-4.1,2.7
		c0,5.2,15.7,1.9,15.9,12.4C198.5,68.9,194.2,72.6,187.3,72.6z"/>
	<path class="st4" d="M215.5,43.3c3.7,0,7.3,1.7,9.3,4.4V34.2h7.3v38h-7.3V68c-1.7,2.6-4.9,4.7-9.3,4.7c-7.2,0-13-5.9-13-14.8
		C202.5,49,208.3,43.3,215.5,43.3z M217.3,49.6c-3.8,0-7.5,2.9-7.5,8.3c0,5.4,3.6,8.5,7.5,8.5c3.9,0,7.5-3,7.5-8.4
		C224.9,52.6,221.3,49.6,217.3,49.6z"/>
	<path class="st4" d="M250.3,43.3c4.6,0,7.7,2.2,9.4,4.5v-4.1h7.2v28.4h-7.2V68c-1.7,2.5-4.9,4.6-9.4,4.6c-7.2,0-12.9-5.9-12.9-14.8
		C237.3,49,243,43.3,250.3,43.3z M252.1,49.6c-3.8,0-7.5,2.9-7.5,8.3c0,5.4,3.6,8.5,7.5,8.5c3.9,0,7.5-3,7.5-8.4
		C259.6,52.6,256.1,49.6,252.1,49.6z"/>
	<path class="st4" d="M293.4,43.8h7.6l-17.6,41.8h-7.6l6.2-14.2l-11.4-27.7h8.1l7.3,19.8L293.4,43.8z"/>
</g>
<g class="st3">
	<path d="M304.3,72.3c-1,0-1.7-0.8-1.7-1.7c0-1,0.8-1.7,1.7-1.7c0.9,0,1.7,0.8,1.7,1.7C306,71.6,305.3,72.3,304.3,72.3z"/>
	<path d="M315.9,56.6c3.8,0,6.3,2,7.1,5.2h-2.7c-0.5-1.8-2.1-3-4.3-3c-2.8,0-4.9,2-4.9,5.7c0,3.8,2.1,5.8,4.9,5.8
		c2.3,0,3.8-1.1,4.3-3h2.7c-0.8,3.1-3.3,5.2-7.1,5.2c-4.4,0-7.5-3.1-7.5-8C308.5,59.7,311.6,56.6,315.9,56.6z"/>
	<path d="M333.1,72.4c-4.3,0-7.6-3.1-7.6-8c0-4.8,3.4-7.9,7.8-7.9c4.4,0,7.8,3.1,7.8,7.9C341,69.4,337.5,72.4,333.1,72.4z
		 M333.1,70.2c2.7,0,5.3-1.8,5.3-5.7c0-3.9-2.5-5.7-5.2-5.7c-2.7,0-5.1,1.8-5.1,5.7C328.1,68.4,330.4,70.2,333.1,70.2z"/>
	<path d="M366.5,63.5c0-3.1-1.7-4.7-4.2-4.7c-2.6,0-4.3,1.7-4.3,5v8.5h-2.5v-8.7c0-3.1-1.7-4.7-4.2-4.7c-2.6,0-4.3,1.7-4.3,5v8.5
		h-2.5V56.8h2.5V59c1-1.6,2.8-2.5,4.8-2.5c2.5,0,4.6,1.1,5.6,3.4c0.9-2.2,3.1-3.4,5.4-3.4c3.5,0,6.2,2.2,6.2,6.6v9h-2.5V63.5z"/>
</g>
</svg>
